<?xml version="1.0"?>
<svg width="64" height="64" xmlns="http://www.w3.org/2000/svg">
 <!-- Created with SVG-edit - http://svg-edit.googlecode.com/ -->
 <title>ifetion2-logo-64x64</title>
 <g>
  <title>Layer 1</title>
  <path fill="#000000" stroke="#000000" stroke-width="0.5" id="svg_26" d="m31.340244,49.148521c-0.309071,0 -0.16729,0.176056 0,0.507881c0.473057,0.938446 0.459351,0.971001 0.61813,1.523651c0.071003,0.247131 0.355217,0.628334 0.618122,0.761848c0.587872,0.2985 0.399586,0.836182 0.618103,1.015732c0.437099,0.359154 0.190811,0.527245 0.309074,0.761848c0.167274,0.331764 0.399605,0.3283 0.618145,0.507881c0.43705,0.359116 0.214291,0.878357 0.618111,1.015778c0.285564,0.097176 0.39959,0.3283 0.618126,0.507874c0.437073,0.359131 0.090542,0.582245 0.309074,0.761818c0.218517,0.179581 1.181995,0.024841 1.545326,0.507881c0.324951,0.432022 0.618111,0.507896 1.236244,1.01577c0.61813,0.507896 1.236256,0.761856 2.472504,1.269737c1.236252,0.507858 2.072422,0.849754 2.781574,1.269707c0.560673,0.332024 1.332077,0.085693 2.163452,0.507889c0.371799,0.188789 1.023026,0.085686 1.85442,0.507858c0.37178,0.188805 0.642338,0.200623 1.545277,0.507904c0.638485,0.217285 1.791645,0.573006 2.163479,0.761803c0.831341,0.422195 1.799885,0.631393 2.4725,0.761856c0.601574,0.116676 1.14151,0.370445 1.545322,0.507889c0.285534,0.097183 0.927189,0 1.236256,0c0.309063,0 0.523384,0.116486 0.927208,0.253944c0.571053,0.194344 0.927185,0 1.236244,0c0.309067,0 0.523384,0.116508 0.927177,0.253937c0.285553,0.097176 0.399605,0.074387 0.618126,0.253914c0.218544,0.179588 0.708664,-0.179573 0.9272,0c0.218552,0.179588 0.309059,0.253975 0.618126,0.253975c0.309082,0 0.286156,0.38028 1.854385,0.507874c0.307552,0.025009 0.61813,0 0.927197,0c0.309052,0 0.399582,-0.074371 0.618134,-0.253944c0.218521,-0.179573 0.309052,-0.253929 0.309052,-0.507904c0,-0.253914 -0.023514,-0.41069 -0.309052,-0.507851c-0.807617,-0.274872 -1.417316,-0.148758 -1.854412,-0.507912c-0.218498,-0.179543 -0.399574,-0.074356 -0.618103,-0.253922c-0.218544,-0.179581 -0.090546,-0.328346 -0.309067,-0.507889c-0.437065,-0.359161 -0.764717,-0.037933 -0.9272,-0.253967c-0.726639,-0.966042 -1.996162,-0.43 -2.163437,-0.761803c-0.118256,-0.234627 -0.618126,-0.253967 -0.927185,-0.507904c-0.309082,-0.253899 -0.181084,-0.402679 -0.618126,-0.761795c-0.218552,-0.179581 -0.618141,-0.253952 -0.927204,-0.253952c-0.309063,0 -0.708649,-0.328316 -0.927185,-0.507889c-0.218533,-0.179581 -0.399593,-0.074402 -0.618134,-0.25396c-0.218529,-0.179535 -0.356094,-0.059563 -0.927189,-0.253922c-0.403801,-0.137436 -0.618134,-0.507881 -1.236259,-0.507881c-0.309067,0 -0.399586,-0.328331 -0.618114,-0.507896c-0.218555,-0.179581 -0.309063,-0.253922 -0.61813,-0.507896c-0.309082,-0.253914 -0.708652,-0.328293 -0.927216,-0.507874c-0.218513,-0.179581 -0.641636,-0.156784 -0.92717,-0.253937c-0.403831,-0.137421 -0.309052,-0.507904 -0.618134,-0.507904c-0.30909,0 -0.332611,-0.410728 -0.618153,-0.507858c-0.403786,-0.137466 -0.309071,-0.507896 -0.618107,-0.761833c-0.309063,-0.253937 -0.309063,-0.507912 -0.618107,-0.507912c-0.309082,0 -0.309082,-0.253906 -0.927223,-0.253906c-0.309063,0 -0.618145,-0.253967 -0.927197,-0.253967c-0.309082,0 -0.618095,-0.507874 -0.927166,-0.507874c-0.309093,0 -0.33263,-0.410713 -0.618156,-0.507904c-0.40382,-0.137421 -0.759914,-0.176086 -0.927193,-0.507881c-0.118252,-0.234612 -0.090542,-0.328308 -0.309063,-0.507889c-0.218529,-0.179535 -0.214321,-0.370445 -0.618118,-0.507843c-0.285549,-0.097183 -0.309078,-0.253967 -0.309078,-0.507927c0,-0.253922 0.218536,-0.582268 0,-0.76181c-0.43705,-0.359154 -0.618107,-0.253967 -0.618107,-0.507881c0,-0.253914 0,-0.507881 0,-0.761856c0,-0.253906 -0.309063,-0.507835 -0.309063,-0.761803c0,-0.25396 0,-0.507881 0,-0.761818l0,-0.253944l0,-0.25396"/>
  <rect id="svg_15" height="51.19049" width="64" y="0" x="0" stroke-width="0.5" stroke="#000000" fill="#000000"/>
  <rect id="svg_16" height="2.176871" width="1.904762" y="28.653063" x="38.176871" stroke-width="0.5" stroke="#000000" fill="#000000"/>
  <text fill="#ffffff" stroke="#000000" stroke-width="0" x="31.6863" y="34.3122" id="svg_27" font-size="26" font-family="Serif" text-anchor="middle" xml:space="preserve">SMS</text>
 </g>
</svg>